<svg width="24" height="24" viewBox="0 0 24 24" fill="none" xmlns="http://www.w3.org/2000/svg">
  <rect x="3" y="6" width="18" height="12" rx="2" fill="#6f42c1"/>
  <rect x="5" y="8" width="14" height="8" rx="1" fill="#ffffff"/>
  <rect x="7" y="10" width="3" height="1.5" rx="0.5" fill="#6f42c1"/>
  <rect x="11" y="10" width="3" height="1.5" rx="0.5" fill="#6f42c1"/>
  <rect x="15" y="10" width="2" height="1.5" rx="0.5" fill="#6f42c1"/>
  <rect x="7" y="12.5" width="2" height="1.5" rx="0.5" fill="#6f42c1"/>
  <rect x="10.5" y="12.5" width="4" height="1.5" rx="0.5" fill="#6f42c1"/>
  <rect x="15.5" y="12.5" width="1.5" height="1.5" rx="0.5" fill="#6f42c1"/>
  <rect x="7" y="15" width="4" height="1.5" rx="0.5" fill="#6f42c1"/>
  <rect x="12" y="15" width="3" height="1.5" rx="0.5" fill="#6f42c1"/>
  <circle cx="18" cy="6" r="3" fill="#28a745"/>
  <path d="M16.5 6H19.5M18 4.5V7.5" stroke="#ffffff" stroke-width="1.5" stroke-linecap="round"/>
</svg>
