<svg width="24" height="24" viewBox="0 0 24 24" fill="none" xmlns="http://www.w3.org/2000/svg">
<path fill-rule="evenodd" clip-rule="evenodd" d="M12 2C6.48 2 2 6.48 2 12C2 17.52 6.48 22 12 22C17.52 22 22 17.52 22 12C22 6.48 17.52 2 12 2ZM12 20C7.59 20 4 16.41 4 12C4 7.59 7.59 4 12 4C16.41 4 20 7.59 20 12C20 16.41 16.41 20 12 20Z" fill="#FF6B35"/>
<path d="M12 6C8.69 6 6 8.69 6 12C6 15.31 8.69 18 12 18C15.31 18 18 15.31 18 12C18 8.69 15.31 6 12 6ZM14.5 13.5H13V15C13 15.55 12.55 16 12 16C11.45 16 11 15.55 11 15V13.5H9.5C8.95 13.5 8.5 13.05 8.5 12.5C8.5 11.95 8.95 11.5 9.5 11.5H11V10C11 9.45 11.45 9 12 9C12.55 9 13 9.45 13 10V11.5H14.5C15.05 11.5 15.5 11.95 15.5 12.5C15.5 13.05 15.05 13.5 14.5 13.5Z" fill="#FF6B35"/>
<path d="M12 7.5C9.52 7.5 7.5 9.52 7.5 12C7.5 14.48 9.52 16.5 12 16.5C14.48 16.5 16.5 14.48 16.5 12C16.5 9.52 14.48 7.5 12 7.5Z" fill="#FFF" fill-opacity="0.2"/>
</svg>
