<?xml version="1.0" encoding="UTF-8"?>
<svg width="200" height="200" viewBox="0 0 200 200" fill="none" xmlns="http://www.w3.org/2000/svg">
  <!-- 蓝牙标志 -->
  <circle cx="100" cy="100" r="90" fill="#007AFF" opacity="0.1"/>
  <path d="M100 30C62.386 30 32 60.386 32 98C32 135.614 62.386 166 100 166C137.614 166 168 135.614 168 98C168 60.386 137.614 30 100 30Z" fill="#007AFF" opacity="0.2"/>
  
  <!-- 蓝牙标志中心图形 -->
  <path d="M115 142L85 112L115 82L115 142ZM115 58L85 88L115 118L115 58Z" fill="#007AFF"/>
  <path d="M100 170C141.421 170 175 136.421 175 95C175 53.5786 141.421 20 100 20C58.5786 20 25 53.5786 25 95C25 136.421 58.5786 170 100 170Z" stroke="#007AFF" stroke-width="4"/>
  
  <!-- BT-Music 音符 -->
  <circle cx="145" cy="55" r="20" fill="#4CD964"/>
  <path d="M138 45V65M138 65L138 45L152 41V61M138 65C138 68.866 134.866 72 131 72C127.134 72 124 68.866 124 65C124 61.134 127.134 58 131 58C134.866 58 138 61.134 138 65ZM152 61L152 41L166 37V57C166 60.866 162.866 64 159 64C155.134 64 152 60.866 152 57V61Z" stroke="white" stroke-width="4" stroke-linecap="round" stroke-linejoin="round"/>
</svg> 