<svg width="24" height="24" viewBox="0 0 24 24" fill="none" xmlns="http://www.w3.org/2000/svg">
<path d="M8.5 14.5C8.5 15.3284 7.82843 16 7 16C6.17157 16 5.5 15.3284 5.5 14.5C5.5 13.6716 6.17157 13 7 13C7.82843 13 8.5 13.6716 8.5 14.5Z" fill="#07C160"/>
<path d="M12.5 14.5C12.5 15.3284 11.8284 16 11 16C10.1716 16 9.5 15.3284 9.5 14.5C9.5 13.6716 10.1716 13 11 13C11.8284 13 12.5 13.6716 12.5 14.5Z" fill="#07C160"/>
<path d="M16.5 14.5C16.5 15.3284 15.8284 16 15 16C14.1716 16 13.5 15.3284 13.5 14.5C13.5 13.6716 14.1716 13 15 13C15.8284 13 16.5 13.6716 16.5 14.5Z" fill="#07C160"/>
<path d="M18.5 14.5C18.5 15.3284 17.8284 16 17 16C16.1716 16 15.5 15.3284 15.5 14.5C15.5 13.6716 16.1716 13 17 13C17.8284 13 18.5 13.6716 18.5 14.5Z" fill="#07C160"/>
<path fill-rule="evenodd" clip-rule="evenodd" d="M3 5C2.44772 5 2 5.44772 2 6V18C2 18.5523 2.44772 19 3 19H21C21.5523 19 22 18.5523 22 18V6C22 5.44772 21.5523 5 21 5H3ZM4 7V17H20V7H4Z" fill="#07C160"/>
<path d="M7 9.5C7.55228 9.5 8 9.05228 8 8.5C8 7.94772 7.55228 7.5 7 7.5C6.44772 7.5 6 7.94772 6 8.5C6 9.05228 6.44772 9.5 7 9.5Z" fill="#07C160"/>
<path d="M11 9.5C11.5523 9.5 12 9.05228 12 8.5C12 7.94772 11.5523 7.5 11 7.5C10.4477 7.5 10 7.94772 10 8.5C10 9.05228 10.4477 9.5 11 9.5Z" fill="#07C160"/>
<path d="M15 9.5C15.5523 9.5 16 9.05228 16 8.5C16 7.94772 15.5523 7.5 15 7.5C14.4477 7.5 14 7.94772 14 8.5C14 9.05228 14.4477 9.5 15 9.5Z" fill="#07C160"/>
<path d="M17 9.5C17.5523 9.5 18 9.05228 18 8.5C18 7.94772 17.5523 7.5 17 7.5C16.4477 7.5 16 7.94772 16 8.5C16 9.05228 16.4477 9.5 17 9.5Z" fill="#07C160"/>
<path d="M7 11.5C7.55228 11.5 8 11.0523 8 10.5C8 9.94772 7.55228 9.5 7 9.5C6.44772 9.5 6 9.94772 6 10.5C6 11.0523 6.44772 11.5 7 11.5Z" fill="#07C160"/>
<path d="M11 11.5C11.5523 11.5 12 11.0523 12 10.5C12 9.94772 11.5523 9.5 11 9.5C10.4477 9.5 10 9.94772 10 10.5C10 11.0523 10.4477 11.5 11 11.5Z" fill="#07C160"/>
<path d="M15 11.5C15.5523 11.5 16 11.0523 16 10.5C16 9.94772 15.5523 9.5 15 9.5C14.4477 9.5 14 9.94772 14 10.5C14 11.0523 14.4477 11.5 15 11.5Z" fill="#07C160"/>
<path d="M17 11.5C17.5523 11.5 18 11.0523 18 10.5C18 9.94772 17.5523 9.5 17 9.5C16.4477 9.5 16 9.94772 16 10.5C16 11.0523 16.4477 11.5 17 11.5Z" fill="#07C160"/>
</svg>
